<svg xmlns="http://www.w3.org/2000/svg" xmlns:xlink="http://www.w3.org/1999/xlink" width="1920" height="1082" viewBox="0 0 1920 1082">
  <defs>
    <style>
      .cls-1 {
        clip-path: url(#clip-Contact_1);
      }

      .cls-2 {
        fill: #fffefd;
      }

      .cls-3, .cls-5 {
        fill: none;
      }

      .cls-4 {
        fill: rgba(167,121,98,0.06);
      }

      .cls-5 {
        stroke: #d5c4b7;
        stroke-linecap: round;
        stroke-width: 1.3px;
      }

      .cls-6, .cls-7 {
        stroke: none;
      }

      .cls-7 {
        fill: #86604d;
      }

      .cls-8 {
        fill: #fafafa;
      }
    </style>
    <clipPath id="clip-Contact_1">
      <rect width="1920" height="1082"/>
    </clipPath>
  </defs>
  <g id="Contact_1" data-name="Contact – 1" class="cls-1">
    <rect class="cls-8" width="1920" height="1082"/>
    <rect id="Rectangle_4" data-name="Rectangle 4" class="cls-2" width="1920" height="419"/>
    <g id="Path_26" data-name="Path 26" class="cls-3" transform="translate(1785.712 -167.05) rotate(37)">
      <path class="cls-6" d="M252.468,0c68.923,0,116.167,41.058,139.979,83.167,13.45,23.785,17.029,71.576,17.029,102.078,0,39.971-28.537,81.963-55.266,104.431-29.06,24.428-95.222,31.474-146.535,27.556-40.422-3.086-103.287-2.194-139.3-23.33C17.381,263.977,0,204.532,0,155.259c0-44.244,28.606-92.834,77.99-121C121.739,9.309,201.316,0,252.468,0Z"/>
      <path class="cls-7" d="M 252.4678192138672 -0.0001220703125 L 252.4678192138672 0.9998779296875 C 239.2242279052734 0.9998779296875 224.4908142089844 1.636505126953125 209.8603363037109 2.840911865234375 C 193.6150817871094 4.17828369140625 177.7217559814453 6.169403076171875 162.6219177246094 8.75897216796875 C 145.8468017578125 11.6358642578125 130.4322204589844 15.19503784179688 116.806396484375 19.33755493164062 C 101.6964416503906 23.93133544921875 88.80343627929688 29.24435424804688 78.48550415039062 35.12896728515625 C 54.89080810546875 48.58575439453125 35.12417602539062 67.30476379394531 21.32254028320312 89.26234436035156 C 14.7359619140625 99.74118041992188 9.64703369140625 110.7364501953125 6.19696044921875 121.9426574707031 C 2.748443603515625 133.1438140869141 0.999908447265625 144.3531951904297 0.999908447265625 155.2593383789062 C 0.999908447265625 168.1138763427734 2.17596435546875 180.9182891845703 4.495452880859375 193.3170318603516 C 7.02838134765625 206.8572387695312 10.89306640625 219.6832427978516 15.98208618164062 231.4386596679688 C 21.5545654296875 244.3109741210938 28.60748291015625 255.9063415527344 36.94491577148438 265.90283203125 C 41.3900146484375 271.2323913574219 46.26834106445312 276.1819763183594 51.44439697265625 280.6141357421875 C 56.84814453125 285.2413024902344 62.71356201171875 289.4217224121094 68.8778076171875 293.0393371582031 C 98.1767578125 310.234130859375 145.7143859863281 312.7642517089844 183.9115447998047 314.7971801757812 C 192.4096527099609 315.2494506835938 200.4364471435547 315.6766662597656 207.7510223388672 316.2350769042969 C 216.5542907714844 316.9071350097656 225.6904449462891 317.2479248046875 234.90576171875 317.2479248046875 C 259.0723876953125 317.2479248046875 282.40234375 314.9442443847656 302.3735046386719 310.5859375 C 313.2491760253906 308.2124938964844 323.0200805664062 305.2455444335938 331.414794921875 301.7675170898438 C 340.385986328125 298.0506591796875 347.8388061523438 293.7248840332031 353.56640625 288.9103393554688 C 360.3866577148438 283.1773986816406 367.0437622070312 276.4317626953125 373.3528747558594 268.8608093261719 C 380.0177612304688 260.863037109375 385.9544067382812 252.3396606445312 390.997802734375 243.5275573730469 C 396.4443969726562 234.0110778808594 400.6992797851562 224.4021301269531 403.6441955566406 214.9677124023438 C 406.8499145507812 204.6978759765625 408.475341796875 194.6977691650391 408.475341796875 185.2451934814453 C 408.475341796875 174.6946563720703 408.0257568359375 153.7249755859375 405.0142822265625 131.8234558105469 C 403.6433410644531 121.8529815673828 401.8943786621094 112.8689727783203 399.8160095214844 105.1209259033203 C 397.4826049804688 96.42228698730469 394.7103881835938 89.20161437988281 391.5762329101562 83.65934753417969 C 385.3905029296875 72.72055053710938 377.9564514160156 62.43182373046875 369.4805908203125 53.078857421875 C 360.265380859375 42.91012573242188 349.9500122070312 34.01004028320312 338.8210754394531 26.62576293945312 C 326.6731872558594 18.56546020507812 313.5348510742188 12.3082275390625 299.7710266113281 8.02801513671875 C 292.4441223144531 5.74951171875 284.8313903808594 4.002349853515625 277.1442260742188 2.834991455078125 C 269.1256713867188 1.617279052734375 260.8233032226562 0.9998779296875 252.4678192138672 0.9998779296875 L 252.4678192138672 -0.0001220703125 M 252.4678192138672 -0.0001220703125 C 321.39111328125 -0.00018310546875 368.6345520019531 41.05783081054688 392.4467163085938 83.16712951660156 C 405.8971862792969 106.9523468017578 409.4754028320312 154.7428131103516 409.475341796875 185.2451934814453 C 409.475341796875 225.2159729003906 380.9381713867188 267.20849609375 354.2098693847656 289.6758117675781 C 330.0965270996094 309.9452514648438 280.4294738769531 318.2479553222656 234.9057922363281 318.2479553222656 C 225.566650390625 318.2479553222656 216.4097290039062 317.8990173339844 207.6749114990234 317.232177734375 C 167.2530822753906 314.146240234375 104.3876647949219 315.0386657714844 68.37164306640625 293.9017639160156 C 17.3812255859375 263.9769287109375 -9.1552734375e-05 204.5319213867188 -9.1552734375e-05 155.2593383789062 C -9.1552734375e-05 111.0149841308594 28.60586547851562 62.42559814453125 77.99008178710938 34.26034545898438 C 121.73876953125 9.30902099609375 201.3162841796875 -6.103515625e-05 252.4678192138672 -0.0001220703125 Z"/>
    </g>
    <g id="Path_27" data-name="Path 27" class="cls-3" transform="translate(2148.774 147.558) rotate(163)">
      <path class="cls-6" d="M252.468,0c68.923,0,116.167,41.058,139.979,83.167,13.451,23.785,17.029,71.576,17.029,102.078,0,39.971-28.537,81.963-55.265,104.431-29.06,24.428-95.222,31.474-146.535,27.556-40.422-3.086-103.287-2.194-139.3-23.331C17.381,263.977,0,204.532,0,155.259c0-44.244,28.606-92.834,77.99-121C121.739,9.309,201.316,0,252.468,0Z"/>
      <path class="cls-7" d="M 252.4678955078125 1.000091552734375 C 239.2243194580078 1.000091552734375 224.4908905029297 1.63671875 209.8603668212891 2.84112548828125 C 193.6151580810547 4.178436279296875 177.7218322753906 6.1695556640625 162.6219482421875 8.759124755859375 C 145.8468322753906 11.635986328125 130.4323120117188 15.19512939453125 116.8064575195312 19.33770751953125 C 101.6964721679688 23.93145751953125 88.803466796875 29.24444580078125 78.48556518554688 35.12908935546875 C 54.89089965820312 48.5858154296875 35.124267578125 67.30476379394531 21.32269287109375 89.26234436035156 C 14.73611450195312 99.74118041992188 9.6470947265625 110.7363891601562 6.197113037109375 121.9425964355469 C 2.748565673828125 133.1437683105469 1.00006103515625 144.3531341552734 1.00006103515625 155.2592926025391 C 1.00006103515625 168.1138153076172 2.176116943359375 180.9182281494141 4.495574951171875 193.3169708251953 C 7.028564453125 206.857177734375 10.89321899414062 219.6831359863281 15.98226928710938 231.4385986328125 C 21.55474853515625 244.3108673095703 28.60763549804688 255.9062805175781 36.94509887695312 265.9027099609375 C 41.39019775390625 271.2322998046875 46.26852416992188 276.1819152832031 51.444580078125 280.6140747070312 C 56.84832763671875 285.2411804199219 62.7137451171875 289.4216613769531 68.87799072265625 293.0392761230469 C 98.17706298828125 310.2341918945312 145.7147827148438 312.7642211914062 183.9120483398438 314.7972412109375 C 192.4100494384766 315.24951171875 200.4367828369141 315.6766967773438 207.7513122558594 316.2351379394531 C 216.5550537109375 316.9072265625 225.6913146972656 317.2480163574219 234.9064178466797 317.2480163574219 C 259.072998046875 317.2480163574219 282.4028930664062 314.9443359375 302.3739929199219 310.5860290527344 C 313.2496337890625 308.2126159667969 323.0204772949219 305.2456970214844 331.4151611328125 301.7676696777344 C 340.3862609863281 298.0508117675781 347.839111328125 293.7250366210938 353.5666809082031 288.9104919433594 C 360.3869018554688 283.1775512695312 367.0440368652344 276.4319152832031 373.3531494140625 268.8610229492188 C 380.0180358886719 260.8631896972656 385.9546203613281 252.3398742675781 390.9981079101562 243.5277709960938 C 396.4446716308594 234.0112915039062 400.6995239257812 224.40234375 403.6444702148438 214.9679260253906 C 406.8502197265625 204.6980743408203 408.4756164550781 194.6979675292969 408.4756164550781 185.2453918457031 C 408.4756164550781 174.6948699951172 408.0260009765625 153.7250823974609 405.0145263671875 131.8236541748047 C 403.6435852050781 121.8532409667969 401.8946228027344 112.8691864013672 399.8161926269531 105.1211853027344 C 397.4828491210938 96.42254638671875 394.7105712890625 89.20187377929688 391.576416015625 83.65960693359375 C 385.3906860351562 72.72080993652344 377.9566345214844 62.43206787109375 369.4807739257812 53.07913208007812 C 360.2655334472656 42.910400390625 349.9501647949219 34.01028442382812 338.8211975097656 26.62603759765625 C 326.6733093261719 18.56570434570312 313.5350036621094 12.30850219726562 299.7711181640625 8.028228759765625 C 292.4442749023438 5.749755859375 284.8315124511719 4.0025634765625 277.1443176269531 2.835174560546875 C 269.125732421875 1.61749267578125 260.8233642578125 1.000091552734375 252.4678955078125 1.000091552734375 M 252.4678955078125 9.1552734375e-05 C 321.3912048339844 9.1552734375e-05 368.6347351074219 41.05807495117188 392.4468994140625 83.16738891601562 C 405.8974304199219 106.9526062011719 409.4756164550781 154.7430267333984 409.4756164550781 185.2453918457031 C 409.4756164550781 225.2161865234375 380.9384155273438 267.2087097167969 354.2101440429688 289.6759643554688 C 330.0968627929688 309.9454040527344 280.4301147460938 318.2480163574219 234.9064331054688 318.2480163574219 C 225.5672912597656 318.2480163574219 216.4100189208984 317.8990783691406 207.6752014160156 317.2322387695312 C 167.2533111572266 314.1463012695312 104.3878784179688 315.0386657714844 68.371826171875 293.9017028808594 C 17.38140869140625 263.976806640625 6.103515625e-05 204.5318603515625 6.103515625e-05 155.2592926025391 C 6.103515625e-05 111.0149230957031 28.60595703125 62.42559814453125 77.99014282226562 34.26043701171875 C 121.7388000488281 9.30914306640625 201.3163604736328 9.1552734375e-05 252.4678955078125 9.1552734375e-05 Z"/>
    </g>
    <g id="Path_32" data-name="Path 32" class="cls-3" transform="matrix(0.375, 0.927, -0.927, 0.375, 301.426, -279.311)">
      <path class="cls-6" d="M194.129-3.771c53,0,89.323,40.829,107.633,82.7,10.342,23.653,13.094,71.176,13.094,101.509,0,39.748-21.943,81.506-42.495,103.848-22.345,24.291-73.219,31.3-112.674,27.4-31.081-3.069-79.42-2.181-107.114-23.2C13.365,258.733,0,199.62,0,150.622c0-44,22-92.316,59.969-120.324C93.608,5.486,154.8-3.771,194.129-3.771Z"/>
      <path class="cls-7" d="M 194.1286926269531 -2.7711181640625 C 183.9594421386719 -2.7711181640625 172.6453552246094 -2.138824462890625 161.4095306396484 -0.942626953125 C 148.9328918457031 0.385711669921875 136.7268981933594 2.36328125 125.1305236816406 4.93524169921875 C 112.2509460449219 7.791839599609375 100.4170684814453 11.32540893554688 89.95756530761719 15.4378662109375 C 78.36543273925781 19.99566650390625 68.47540283203125 25.26617431640625 60.56205749511719 31.1029052734375 C 42.43960571289062 44.46978759765625 27.2529296875 63.07295227050781 16.64385986328125 84.9012451171875 C 11.5753173828125 95.32987976074219 7.658721923828125 106.2742156982422 5.00299072265625 117.4302978515625 C 2.346771240234375 128.5880432128906 0.999969482421875 139.7554168701172 0.999969482421875 150.6221313476562 C 0.999969482421875 163.4183807373047 1.905242919921875 176.1647491455078 3.6905517578125 188.5072021484375 C 5.640228271484375 201.9856567382812 8.6148681640625 214.7528686523438 12.53173828125 226.4541625976562 C 16.81936645507812 239.2630310058594 22.24493408203125 250.7996215820312 28.65786743164062 260.7433776855469 C 35.64993286132812 271.5852661132812 43.89947509765625 280.6530151367188 53.17730712890625 287.6947021484375 C 63.14456176757812 295.2597045898438 76.68972778320312 300.6228332519531 94.58673095703125 304.0905456542969 C 110.1952667236328 307.1148071289062 126.7959442138672 308.2574157714844 141.4423980712891 309.2655334472656 C 147.979736328125 309.7155151367188 154.1544799804688 310.1405029296875 159.7846832275391 310.6963806152344 C 166.5409393310547 311.3634643554688 173.552734375 311.70166015625 180.6252288818359 311.70166015625 C 199.1711883544922 311.70166015625 217.0728454589844 309.4159240722656 232.3949890136719 305.091552734375 C 240.7324829101562 302.7384643554688 248.2218627929688 299.7975463867188 254.6551513671875 296.3504943847656 C 261.5270385742188 292.66845703125 267.2363891601562 288.3826293945312 271.6247863769531 283.6120300292969 C 276.8651123046875 277.915283203125 281.9809875488281 271.2109069824219 286.8303527832031 263.6850891113281 C 291.9557189941406 255.73095703125 296.521484375 247.2532501220703 300.4007873535156 238.4874572753906 C 304.5922241210938 229.0162963867188 307.8669128417969 219.45166015625 310.1339111328125 210.0592956542969 C 312.6034851074219 199.8274536132812 313.8556823730469 189.8624267578125 313.8556823730469 180.44091796875 C 313.8556823730469 169.9436187744141 313.5097351074219 149.0794982910156 311.1928100585938 127.2874603271484 C 310.1377868652344 117.3640899658203 308.7916564941406 108.4218292236328 307.1918640136719 100.7090454101562 C 305.3949279785156 92.04579162597656 303.259765625 84.85379028320312 300.845703125 79.33291625976562 C 296.0879516601562 68.45191955566406 290.3709411621094 58.21884155273438 283.8535766601562 48.91796875 C 276.7728576660156 38.81320190429688 268.8488464355469 29.97088623046875 260.3017578125 22.63653564453125 C 250.983154296875 14.6402587890625 240.9081115722656 8.43408203125 230.3564758300781 4.190460205078125 C 224.7440643310547 1.93328857421875 218.9131469726562 0.202545166015625 213.0257263183594 -0.953704833984375 C 206.8852844238281 -2.15966796875 200.5274047851562 -2.7711181640625 194.1286926269531 -2.7711181640625 M 194.1286926269531 -3.7711181640625 C 247.1255187988281 -3.7711181640625 283.4521789550781 37.05783081054688 301.7619323730469 78.93229675292969 C 312.1043090820312 102.5848388671875 314.8556823730469 150.1086730957031 314.8556823730469 180.44091796875 C 314.8556823730469 220.1887054443359 292.9127807617188 261.9469909667969 272.3607177734375 284.2890319824219 C 253.8194274902344 304.4453430175781 215.6295013427734 312.70166015625 180.6252288818359 312.70166015625 C 173.4441375732422 312.70166015625 166.4028472900391 312.3546752929688 159.6864471435547 311.6915283203125 C 128.6051025390625 308.6228637695312 80.26626586914062 309.51025390625 52.57272338867188 288.4912414550781 C 13.36492919921875 258.7332763671875 -3.0517578125e-05 199.619873046875 -3.0517578125e-05 150.6221313476562 C -3.0517578125e-05 106.6245880126953 21.99575805664062 58.30628967285156 59.96847534179688 30.29815673828125 C 93.60794067382812 5.486083984375 154.7970275878906 -3.7711181640625 194.1286926269531 -3.7711181640625 Z"/>
    </g>
    <g id="Path_33" data-name="Path 33" class="cls-3" transform="translate(295.584 -314.3) rotate(66)">
      <path class="cls-6" d="M230.177-3.771c62.838,0,105.91,48.411,127.62,98.061,12.263,28.045,15.525,84.393,15.525,120.358,0,47.129-26.018,96.641-50.386,123.132-26.494,28.8-86.815,37.11-133.6,32.491-36.853-3.639-94.168-2.586-127-27.508C15.847,307.479,0,237.389,0,179.292,0,127.124,26.08,69.834,71.1,36.625,110.99,7.205,183.542-3.771,230.177-3.771Z"/>
      <path class="cls-7" d="M 230.1773834228516 -2.771148681640625 C 218.1133270263672 -2.771148681640625 204.6914215087891 -2.021087646484375 191.3627777099609 -0.60205078125 C 176.5624237060547 0.973663330078125 162.0829315185547 3.319671630859375 148.3264312744141 6.370697021484375 C 133.0457305908203 9.759796142578125 119.0050201416016 13.95242309570312 106.5942687988281 18.83212280273438 C 92.83453369140625 24.24215698242188 81.09368896484375 30.49920654296875 71.69793701171875 37.42947387695312 C 50.18612670898438 53.29620361328125 32.1597900390625 75.37747192382812 19.56753540039062 101.2860717773438 C 13.55181884765625 113.6633605957031 8.903411865234375 126.6528625488281 5.751312255859375 139.8937072753906 C 2.59857177734375 153.1375122070312 0.999969482421875 166.39306640625 0.999969482421875 179.2921600341797 C 0.999969482421875 194.4734649658203 2.073974609375 209.5957641601562 4.192138671875 224.2389068603516 C 6.50543212890625 240.2312164306641 10.03497314453125 255.3800659179688 14.68267822265625 269.2647705078125 C 19.77142333984375 284.466796875 26.21127319335938 298.15966796875 33.8233642578125 309.9629516601562 C 37.87942504882812 316.252197265625 42.33001708984375 322.0923156738281 47.0516357421875 327.3210144042969 C 51.9774169921875 332.7758483886719 57.32293701171875 337.7032165527344 62.93972778320312 341.9662475585938 C 74.78106689453125 350.9536743164062 90.86663818359375 357.3239135742188 112.1155700683594 361.4410705566406 C 130.6336822509766 365.0291137695312 150.3230285644531 366.3843078613281 167.694580078125 367.5800170898438 C 175.4445343017578 368.1134643554688 182.7646331787109 368.6173095703125 189.4376220703125 369.2761535644531 C 197.4546813964844 370.0676574707031 205.7745208740234 370.468994140625 214.1661834716797 370.468994140625 C 224.7740325927734 370.468994140625 235.3017272949219 369.831298828125 245.456787109375 368.5735473632812 C 256.1747436523438 367.2461242675781 266.3162841796875 365.2445678710938 275.5998229980469 362.6244506835938 C 285.4984741210938 359.8307495117188 294.3911743164062 356.3386535644531 302.0309448242188 352.2451477050781 C 310.1972351074219 347.8695068359375 316.9833374023438 342.7750549316406 322.2007141113281 337.103271484375 C 328.4212646484375 330.3408508300781 334.4937133789062 322.383056640625 340.2493286132812 313.4508666992188 C 346.3316650390625 304.0115966796875 351.7498779296875 293.9511108398438 356.3534240722656 283.5487060546875 C 361.3276672363281 272.3086547851562 365.2140808105469 260.9573059082031 367.9046325683594 249.81005859375 C 370.8362731933594 237.6639556884766 372.3227233886719 225.8337554931641 372.3227233886719 214.6481018066406 C 372.3227233886719 202.1978149414062 371.9124145507812 177.4518585205078 369.1643371582031 151.6046600341797 C 367.9127197265625 139.8325653076172 366.3157348632812 129.2237091064453 364.4176330566406 120.07275390625 C 362.2843627929688 109.7881469726562 359.7488403320312 101.2483520507812 356.8812866210938 94.69052124023438 C 351.2351379394531 81.77764892578125 344.450439453125 69.633544921875 336.7157287597656 58.595458984375 C 328.311279296875 46.60162353515625 318.9053649902344 36.10577392578125 308.7593688964844 27.3994140625 C 297.6949157714844 17.90496826171875 285.7315673828125 10.53579711914062 273.2017822265625 5.496612548828125 C 266.5363159179688 2.81591796875 259.6113891601562 0.760467529296875 252.6192779541016 -0.61273193359375 C 245.3268280029297 -2.044952392578125 237.7762756347656 -2.771148681640625 230.1773834228516 -2.771148681640625 M 230.1773834228516 -3.771148681640625 C 293.0154418945312 -3.771148681640625 336.0877685546875 44.63955688476562 357.7975158691406 94.28985595703125 C 370.0604858398438 122.3345642089844 373.3227233886719 178.6833038330078 373.3227233886719 214.6481018066406 C 373.3227233886719 261.77685546875 347.3051147460938 311.2894592285156 322.9366760253906 337.7802734375 C 300.9523315429688 361.6795043945312 255.6705627441406 371.468994140625 214.1661987304688 371.468994140625 C 205.651611328125 371.468994140625 197.302978515625 371.0575561523438 189.3393707275391 370.2713012695312 C 152.4863739013672 366.6327514648438 95.17132568359375 367.6849060058594 62.33517456054688 342.7628173828125 C 15.84674072265625 307.4789428710938 -3.0517578125e-05 237.3885040283203 -3.0517578125e-05 179.2921600341797 C -3.0517578125e-05 127.1244659423828 26.08029174804688 69.83370971679688 71.10433959960938 36.62469482421875 C 110.9904174804688 7.205047607421875 183.5420227050781 -3.771148681640625 230.1773834228516 -3.771148681640625 Z"/>
    </g>
    <g id="Path_17" data-name="Path 17" class="cls-3" transform="matrix(0.375, 0.927, -0.927, 0.375, 274.996, -216.843)">
      <path class="cls-6" d="M153.626-3.771c41.94,0,70.687,32.31,85.177,65.448,8.185,18.718,10.362,56.326,10.362,80.33,0,31.455-17.365,64.5-33.629,82.181-17.683,19.223-57.943,24.768-89.166,21.685-24.6-2.428-62.85-1.726-84.766-18.36C10.577,203.965,0,157.185,0,118.41,0,83.592,17.407,45.355,47.457,23.19,74.078,3.555,122.5-3.771,153.626-3.771Z"/>
      <path class="cls-7" d="M 153.6261291503906 -2.7711181640625 C 145.5858459472656 -2.7711181640625 136.6399078369141 -2.271148681640625 127.7555084228516 -1.325286865234375 C 117.8897094726562 -0.2749176025390625 108.2381134033203 1.288818359375 99.06877136230469 3.322479248046875 C 88.88694763183594 5.580718994140625 79.53250122070312 8.37384033203125 71.265380859375 11.62434387207031 C 62.10870361328125 15.22454833984375 54.29808044433594 19.38658142089844 48.05039978027344 23.99481201171875 C 33.73600769042969 34.55288696289062 21.73994445800781 49.24818420410156 13.3590087890625 66.49205017089844 C 9.354568481445312 74.73118591308594 6.260299682617188 83.377685546875 4.162139892578125 92.19140625 C 2.06390380859375 101.0054473876953 1 109.8266143798828 1 118.4098815917969 C 1 128.5263824462891 1.715667724609375 138.6033477783203 3.1270751953125 148.36083984375 C 4.668212890625 159.0148773193359 7.019271850585938 169.1061096191406 10.11497497558594 178.3542785644531 C 13.50253295898438 188.4742431640625 17.78857421875 197.5880737304688 22.85408020019531 205.4426116943359 C 28.37409973144531 214.001953125 34.88594055175781 221.1599426269531 42.20863342285156 226.7177124023438 C 59.92691040039062 240.1656494140625 88.77040100097656 242.1509399414062 111.946533203125 243.7461395263672 C 117.1215057373047 244.1023406982422 122.0094757080078 244.4387817382812 126.4681091308594 244.8789825439453 C 131.8079376220703 245.4061737060547 137.3498840332031 245.6735076904297 142.93994140625 245.6735076904297 C 157.5976104736328 245.6735076904297 171.7447814941406 243.8673858642578 183.8519439697266 240.4503479003906 C 190.4354095458984 238.59228515625 196.3481750488281 236.2706451416016 201.4259338378906 233.5499114990234 C 206.8434448242188 230.6471099853516 211.3431396484375 227.2698059082031 214.8000793457031 223.5118103027344 C 218.9390106201172 219.0123748779297 222.9802093505859 213.7162780761719 226.8113708496094 207.7706451416016 C 230.8615417480469 201.4851379394531 234.4695129394531 194.7858123779297 237.5350799560547 187.8587799072266 C 240.8469696044922 180.3750457763672 243.4344024658203 172.8179168701172 245.2254791259766 165.3972778320312 C 247.1759796142578 157.3162231445312 248.1649475097656 149.4466857910156 248.1649475097656 142.0073547363281 C 248.1649475097656 133.7043151855469 247.8913116455078 117.2015838623047 246.0588073730469 99.96574401855469 C 245.224609375 92.11958312988281 244.160400390625 85.04985046386719 242.8957672119141 78.95291137695312 C 241.4766693115234 72.11125183105469 239.7914123535156 66.43368530273438 237.8867797851562 62.077880859375 C 234.1272125244141 53.47972106933594 229.6098327636719 45.39381408691406 224.4601135253906 38.04478454589844 C 218.86669921875 30.06251525878906 212.6077728271484 23.07801818847656 205.8571472167969 17.28524780273438 C 198.5000457763672 10.97215270996094 190.5465698242188 6.072647094726562 182.2175750732422 2.722946166992188 C 173.1529083251953 -0.9226531982421875 163.5333404541016 -2.7711181640625 153.6261291503906 -2.7711181640625 M 153.6261291503906 -3.7711181640625 C 195.5658111572266 -3.7711181640625 224.3133697509766 28.53938293457031 238.8030090332031 61.67724609375 C 246.9876098632812 80.39494323730469 249.1649475097656 118.003547668457 249.1649475097656 142.0073547363281 C 249.1649475097656 173.4622802734375 231.8001403808594 206.5082092285156 215.5360412597656 224.1888122558594 C 200.8631286621094 240.1397552490234 170.6409912109375 246.6735229492188 142.93994140625 246.6735229492188 C 137.2570953369141 246.6735229492188 131.6849365234375 246.3989105224609 126.3698425292969 245.8741455078125 C 101.7732086181641 243.4457092285156 63.51974487304688 244.14794921875 41.60408020019531 227.5142822265625 C 10.57650756835938 203.9649810791016 0 157.1848449707031 0 118.4098815917969 C 0 83.59184265136719 17.40664672851562 45.3546142578125 47.45680236816406 23.19004821777344 C 74.07777404785156 3.5546875 122.5005416870117 -3.7711181640625 153.6261291503906 -3.7711181640625 Z"/>
    </g>
    <path id="Path_39" data-name="Path 39" class="cls-4" d="M93.97,6.72c56.484,19.4,93,51.138,93,105s-46.781,99.912-93,111-94-49.932-94-111S37.486-12.685,93.97,6.72Z" transform="translate(1389.03 -113.72)"/>
    <path id="Path_40" data-name="Path 40" class="cls-4" d="M104.443,6.9c63.1,17.722,104.443,46.588,104.443,95.779S156.08,193.537,104.443,203.663,0,158.451,0,102.679,41.338-10.822,104.443,6.9Z" transform="translate(84.297 721.849) rotate(60)"/>
    <path id="Path_41" data-name="Path 41" class="cls-4" d="M34.5,4.7C67.073,13.848,88.414,28.75,88.414,54.144s-10.663,59.413-37.32,64.64S-40.151,71.716-40.151,42.924,1.918-4.45,34.5,4.7Z" transform="matrix(0.875, 0.485, -0.485, 0.875, 1785.063, 637.127)"/>
    <g id="Path_42" data-name="Path 42" class="cls-3" transform="translate(1478.725 991.332) rotate(62)">
      <path class="cls-6" d="M194.129-3.771c53,0,89.323,40.829,107.633,82.7,10.342,23.653,13.094,71.176,13.094,101.509,0,39.748-21.943,81.506-42.495,103.848-22.345,24.291-73.219,31.3-112.674,27.4-31.081-3.069-79.42-2.181-107.114-23.2C13.365,258.733,0,199.62,0,150.622c0-44,22-92.316,59.969-120.324C93.608,5.486,154.8-3.771,194.129-3.771Z"/>
      <path class="cls-7" d="M 194.1286926269531 -2.7711181640625 C 183.9594421386719 -2.7711181640625 172.6453552246094 -2.138824462890625 161.4095306396484 -0.942626953125 C 148.9328918457031 0.385711669921875 136.7268981933594 2.36328125 125.1305236816406 4.93524169921875 C 112.2509460449219 7.791839599609375 100.4170684814453 11.32540893554688 89.95756530761719 15.4378662109375 C 78.36543273925781 19.99566650390625 68.47540283203125 25.26617431640625 60.56205749511719 31.1029052734375 C 42.43960571289062 44.46978759765625 27.2529296875 63.07295227050781 16.64385986328125 84.9012451171875 C 11.5753173828125 95.32987976074219 7.658721923828125 106.2742156982422 5.00299072265625 117.4302978515625 C 2.346771240234375 128.5880432128906 0.999969482421875 139.7554168701172 0.999969482421875 150.6221313476562 C 0.999969482421875 163.4183807373047 1.905242919921875 176.1647491455078 3.6905517578125 188.5072021484375 C 5.640228271484375 201.9856567382812 8.6148681640625 214.7528686523438 12.53173828125 226.4541625976562 C 16.81936645507812 239.2630310058594 22.24493408203125 250.7996215820312 28.65786743164062 260.7433776855469 C 35.64993286132812 271.5852661132812 43.89947509765625 280.6530151367188 53.17730712890625 287.6947021484375 C 63.14456176757812 295.2597045898438 76.68972778320312 300.6228332519531 94.58673095703125 304.0905456542969 C 110.1952667236328 307.1148071289062 126.7959442138672 308.2574157714844 141.4423980712891 309.2655334472656 C 147.979736328125 309.7155151367188 154.1544799804688 310.1405029296875 159.7846832275391 310.6963806152344 C 166.5409393310547 311.3634643554688 173.552734375 311.70166015625 180.6252288818359 311.70166015625 C 199.1711883544922 311.70166015625 217.0728454589844 309.4159240722656 232.3949890136719 305.091552734375 C 240.7324829101562 302.7384643554688 248.2218627929688 299.7975463867188 254.6551513671875 296.3504943847656 C 261.5270385742188 292.66845703125 267.2363891601562 288.3826293945312 271.6247863769531 283.6120300292969 C 276.8651123046875 277.915283203125 281.9809875488281 271.2109069824219 286.8303527832031 263.6850891113281 C 291.9557189941406 255.73095703125 296.521484375 247.2532501220703 300.4007873535156 238.4874572753906 C 304.5922241210938 229.0162963867188 307.8669128417969 219.45166015625 310.1339111328125 210.0592956542969 C 312.6034851074219 199.8274536132812 313.8556823730469 189.8624267578125 313.8556823730469 180.44091796875 C 313.8556823730469 169.9436187744141 313.5097351074219 149.0794982910156 311.1928100585938 127.2874603271484 C 310.1377868652344 117.3640899658203 308.7916564941406 108.4218292236328 307.1918640136719 100.7090454101562 C 305.3949279785156 92.04579162597656 303.259765625 84.85379028320312 300.845703125 79.33291625976562 C 296.0879516601562 68.45191955566406 290.3709411621094 58.21884155273438 283.8535766601562 48.91796875 C 276.7728576660156 38.81320190429688 268.8488464355469 29.97088623046875 260.3017578125 22.63653564453125 C 250.983154296875 14.6402587890625 240.9081115722656 8.43408203125 230.3564758300781 4.190460205078125 C 224.7440643310547 1.93328857421875 218.9131469726562 0.202545166015625 213.0257263183594 -0.953704833984375 C 206.8852844238281 -2.15966796875 200.5274047851562 -2.7711181640625 194.1286926269531 -2.7711181640625 M 194.1286926269531 -3.7711181640625 C 247.1255187988281 -3.7711181640625 283.4521789550781 37.05783081054688 301.7619323730469 78.93229675292969 C 312.1043090820312 102.5848388671875 314.8556823730469 150.1086730957031 314.8556823730469 180.44091796875 C 314.8556823730469 220.1887054443359 292.9127807617188 261.9469909667969 272.3607177734375 284.2890319824219 C 253.8194274902344 304.4453430175781 215.6295013427734 312.70166015625 180.6252288818359 312.70166015625 C 173.4441375732422 312.70166015625 166.4028472900391 312.3546752929688 159.6864471435547 311.6915283203125 C 128.6051025390625 308.6228637695312 80.26626586914062 309.51025390625 52.57272338867188 288.4912414550781 C 13.36492919921875 258.7332763671875 -3.0517578125e-05 199.619873046875 -3.0517578125e-05 150.6221313476562 C -3.0517578125e-05 106.6245880126953 21.99575805664062 58.30628967285156 59.96847534179688 30.29815673828125 C 93.60794067382812 5.486083984375 154.7970275878906 -3.7711181640625 194.1286926269531 -3.7711181640625 Z"/>
    </g>
    <g id="Path_43" data-name="Path 43" class="cls-3" transform="translate(1458.67 1458.617) rotate(-135)">
      <path class="cls-6" d="M252.468,0c68.923,0,116.167,41.058,139.979,83.167,13.451,23.785,17.029,71.576,17.029,102.078,0,39.971-28.537,81.963-55.265,104.431-29.06,24.428-112.332,55.805-163.645,51.888-40.422-3.086-86.178-26.525-122.194-47.662C17.381,263.977,0,204.532,0,155.259c0-44.244,28.606-92.834,77.99-121C121.739,9.309,201.316,0,252.468,0Z"/>
      <path class="cls-7" d="M 252.4678955078125 3.0517578125e-05 L 252.4678955078125 1.000030517578125 C 239.2243194580078 1.000030517578125 224.4908905029297 1.636688232421875 209.8603668212891 2.841094970703125 C 193.6151580810547 4.17840576171875 177.7218322753906 6.1695556640625 162.6219482421875 8.75909423828125 C 145.8468322753906 11.635986328125 130.4323120117188 15.19509887695312 116.8064575195312 19.33767700195312 C 101.6964721679688 23.93142700195312 88.803466796875 29.24441528320312 78.48556518554688 35.12905883789062 C 54.89089965820312 48.58578491210938 35.124267578125 67.30477905273438 21.32269287109375 89.26229858398438 C 14.73611450195312 99.74114990234375 9.6470947265625 110.7364196777344 6.197113037109375 121.9425659179688 C 2.748565673828125 133.1437225341797 1.00006103515625 144.3531036376953 1.00006103515625 155.2592468261719 C 1.00006103515625 168.1137847900391 2.176116943359375 180.9181976318359 4.495574951171875 193.3169403076172 C 7.028564453125 206.8571472167969 10.89321899414062 219.6831512451172 15.98226928710938 231.4385681152344 C 21.55474853515625 244.3108825683594 28.60763549804688 255.9063110351562 36.94509887695312 265.9027099609375 C 41.39019775390625 271.2322998046875 46.26852416992188 276.1819458007812 51.444580078125 280.6141052246094 C 56.84832763671875 285.2412109375 62.7137451171875 289.4216918945312 68.87799072265625 293.039306640625 C 79.159423828125 299.0732116699219 88.50137329101562 304.2762451171875 97.43768310546875 308.9458312988281 C 108.2036743164062 314.5714721679688 118.5557861328125 319.4954223632812 128.2063598632812 323.5809936523438 C 139.28662109375 328.2717895507812 149.9011535644531 332.0546264648438 159.7551574707031 334.8243713378906 C 170.7237396240234 337.9074096679688 181.1154632568359 339.83935546875 190.6416778564453 340.5666198730469 C 193.5169982910156 340.7861022949219 196.5690002441406 340.8973999023438 199.7129974365234 340.8973999023438 C 211.9733581542969 340.8973999023438 226.0483703613281 339.2485656738281 241.5471038818359 335.9967651367188 C 248.7422637939453 334.4870910644531 256.2152099609375 332.6320495605469 263.7582397460938 330.4830322265625 C 271.0368957519531 328.409423828125 278.4161376953125 326.0524597167969 285.6910400390625 323.4777221679688 C 299.8044128417969 318.4826354980469 313.5050659179688 312.6661987304688 325.3118286132812 306.6573181152344 C 337.1551513671875 300.6297302246094 346.925537109375 294.4929809570312 353.5666809082031 288.9105224609375 C 360.3869018554688 283.1775817871094 367.0440368652344 276.4319458007812 373.3531494140625 268.8610534667969 C 380.0180358886719 260.8632202148438 385.9546203613281 252.3398895263672 390.9981079101562 243.5277709960938 C 396.4446716308594 234.0113067626953 400.6995239257812 224.4023590087891 403.6444702148438 214.9679412841797 C 406.8502197265625 204.6980895996094 408.4756164550781 194.697998046875 408.4756164550781 185.2454071044922 C 408.4756164550781 174.6948852539062 408.0260009765625 153.72509765625 405.0145263671875 131.8236694335938 C 403.6435852050781 121.8532562255859 401.8946228027344 112.8692016601562 399.8161926269531 105.1212005615234 C 397.4828491210938 96.42257690429688 394.7105712890625 89.20187377929688 391.576416015625 83.65963745117188 C 385.3906860351562 72.7208251953125 377.9566345214844 62.43203735351562 369.4807739257812 53.07916259765625 C 360.2655639648438 42.910400390625 349.9501953125 34.01025390625 338.8211975097656 26.6259765625 C 326.6733093261719 18.565673828125 313.5350036621094 12.3084716796875 299.7711181640625 8.02825927734375 C 292.4442749023438 5.749725341796875 284.8315124511719 4.0025634765625 277.1443176269531 2.835205078125 C 269.125732421875 1.617462158203125 260.8233642578125 1.000030517578125 252.4678955078125 1.000030517578125 L 252.4678955078125 3.0517578125e-05 M 252.4678955078125 3.0517578125e-05 C 321.3912048339844 9.1552734375e-05 368.6347351074219 41.05804443359375 392.4468994140625 83.16741943359375 C 405.8974304199219 106.9526214599609 409.4756164550781 154.7430419921875 409.4756164550781 185.2454071044922 C 409.4756164550781 225.2162017822266 380.9384155273438 267.208740234375 354.2101440429688 289.6759948730469 C 326.8208618164062 312.69921875 251.2706451416016 341.8974304199219 199.7129821777344 341.8974304199219 C 196.5678405761719 341.8974304199219 193.5158081054688 341.7889709472656 190.5655822753906 341.563720703125 C 150.1436767578125 338.4778442382812 104.3878784179688 315.0386657714844 68.371826171875 293.9017333984375 C 17.38140869140625 263.9768371582031 6.103515625e-05 204.5318298339844 6.103515625e-05 155.2592468261719 C 6.103515625e-05 111.0149383544922 28.60595703125 62.42562866210938 77.99014282226562 34.26040649414062 C 121.7388000488281 9.30914306640625 201.3163604736328 3.0517578125e-05 252.4678955078125 3.0517578125e-05 Z"/>
    </g>
    <line id="Line_1" data-name="Line 1" class="cls-5" x2="32" transform="translate(1169.5 216.5)"/>
    <g id="Path_44" data-name="Path 44" class="cls-3" transform="matrix(-0.777, 0.629, -0.629, -0.777, 1766.812, 647.882)">
      <path class="cls-6" d="M73.794-3.771c20.146,0,33.955,15.242,40.915,30.874,3.931,8.83,4.977,26.571,4.977,37.894,0,14.838-8.341,30.427-16.154,38.768-8.494,9.068-27.833,11.684-42.831,10.23-11.815-1.146-30.19-.814-40.717-8.661C5.08,94.224,0,72.157,0,53.865,0,37.441,8.361,19.4,22.8,8.947,35.583-.315,58.843-3.771,73.794-3.771Z"/>
      <path class="cls-7" d="M 73.79446411132812 -2.771125793457031 C 65.56187438964844 -2.771125793457031 56.04956817626953 -1.7276611328125 47.69658660888672 0.0916900634765625 C 42.83138275146484 1.151382446289062 38.36343383789062 2.461372375488281 34.41681671142578 3.985244750976562 C 30.05992126464844 5.667556762695312 26.34745788574219 7.609504699707031 23.38253784179688 9.757156372070312 C 16.57523345947266 14.68803405761719 10.86915588378906 21.55355072021484 6.881217956542969 29.61151885986328 C 4.975151062011719 33.462890625 3.502403259277344 37.50437164306641 2.50384521484375 41.62369537353516 C 1.505966186523438 45.74024200439453 1 49.85895156860352 1 53.86541366577148 C 1 60.86501312255859 1.754646301269531 71.42281341552734 5.349754333496094 81.97015380859375 C 6.962493896484375 86.70158386230469 9.001510620117188 90.96037292480469 11.41017150878906 94.62819671630859 C 14.02790832519531 98.61441802978516 17.11381530761719 101.9463806152344 20.58216857910156 104.5315551757812 C 28.97119903564453 110.7844467163086 42.74256896972656 111.7153244018555 53.80805969238281 112.4632949829102 C 56.29769134521484 112.6315841674805 58.64924621582031 112.7905349731445 60.79837036132812 112.998908996582 C 63.3470458984375 113.2460327148438 65.99253845214844 113.371337890625 68.66135406494141 113.371337890625 C 75.65669250488281 113.371337890625 82.405029296875 112.5257568359375 88.17683410644531 110.9260177612305 C 91.30390930175781 110.0592956542969 94.10972595214844 108.9777374267578 96.51634216308594 107.7113723754883 C 99.06727600097656 106.3690795898438 101.1824645996094 104.8111877441406 102.803108215332 103.0809860229492 C 104.7706604003906 100.9804458618164 106.693000793457 98.50607299804688 108.5167388916016 95.72658538818359 C 110.4470291137695 92.78469085693359 112.166618347168 89.64901733398438 113.6277389526367 86.40666198730469 C 116.9372940063477 79.06249237060547 118.6866149902344 71.6591796875 118.6866149902344 64.99707794189453 C 118.6866149902344 52.18473815917969 117.4017715454102 35.6085205078125 113.7957077026367 27.5096435546875 C 111.1639556884766 21.59884643554688 106.3830184936523 13.16769409179688 98.55206298828125 6.568504333496094 C 95.0611572265625 3.626708984375 91.28897094726562 1.344322204589844 87.34027862548828 -0.2152481079101562 C 83.0462646484375 -1.911201477050781 78.48880004882812 -2.771125793457031 73.79446411132812 -2.771125793457031 M 73.79446411132812 -3.771125793457031 C 93.94021606445312 -3.771125793457031 107.7491226196289 11.47074127197266 114.7092437744141 27.10289001464844 C 118.6407241821289 35.9326171875 119.6866149902344 53.67373657226562 119.6866149902344 64.99707794189453 C 119.6866149902344 79.8353271484375 111.3453979492188 95.42411804199219 103.5329360961914 103.7646179199219 C 96.48478698730469 111.2891616821289 81.96758270263672 114.371337890625 68.66135406494141 114.371337890625 C 65.93159484863281 114.371337890625 63.25497817993164 114.2417984008789 60.70186233520508 113.9942474365234 C 48.88686370849609 112.8486785888672 30.51175689697266 113.1799392700195 19.98455047607422 105.3333358764648 C 5.080429077148438 94.22439575195312 0 72.15676879882812 0 53.86541366577148 C 0 37.44068908691406 8.361289978027344 19.40299987792969 22.79592132568359 8.947288513183594 C 35.58332061767578 -0.3153228759765625 58.84324645996094 -3.771125793457031 73.79446411132812 -3.771125793457031 Z"/>
    </g>
    <path id="Path_38" data-name="Path 38" class="cls-4" d="M153,8.416c92.443,25.961,153,68.247,153,140.307s-77.357,133.1-153,147.932S0,230.424,0,148.723,60.557-17.545,153,8.416Z" transform="matrix(0.921, 0.391, -0.391, 0.921, 290.176, 969.059)"/>
  </g>
</svg>
